<svg width="564" height="343" viewBox="0 0 564 343" fill="none" xmlns="http://www.w3.org/2000/svg">
<path fill-rule="evenodd" clip-rule="evenodd" d="M231.311 234.548C240.641 264.545 269.669 286.002 306.472 299.139C348.004 313.454 394.867 318.24 440.465 312.824C454.728 310.491 468.621 307.154 481.934 302.862C501.403 296.359 519.956 288.576 537.345 279.616C537.779 279.436 538.158 279.196 538.459 278.911C538.76 278.626 538.977 278.302 539.097 277.958C539.217 277.613 539.239 277.255 539.16 276.904C539.081 276.554 538.903 276.218 538.637 275.916C538.371 275.615 538.022 275.354 537.611 275.148C537.2 274.943 536.734 274.798 536.242 274.721C535.75 274.644 535.241 274.637 534.745 274.701C534.249 274.764 533.776 274.897 533.354 275.091C518.138 280.991 502.34 286.113 486.08 290.418C470.216 294.662 453.682 297.541 436.837 298.993C395.62 303.418 353.468 298.712 316.217 285.528C285.79 274.58 261.22 256.881 253.03 232.176C262.252 230.924 271.292 229.079 280.036 226.666C297.628 221.909 313.229 214.101 325.392 203.968C336.091 195.037 343.244 184.273 346.126 172.767C347.416 167.992 346.706 163.055 344.083 158.559C341.46 154.063 337.037 150.2 331.353 147.441C306.109 135.289 281.746 141.384 262.671 156.126C241.16 172.73 227.216 200.902 227.942 219.075C218.819 219.805 209.592 220.207 200.521 220.572C162.297 221.751 124.707 213.403 94.3627 196.998C63.7402 180.532 40.975 157.886 29.1023 132.078C18.1651 110.183 18.7353 86.6819 23.9188 65.5529C27.3043 51.9936 32.654 38.7141 39.884 25.9224C44.2106 17.0806 50.1338 8.6671 57.508 0.888735C57.6052 0.776919 57.6462 0.645314 57.6242 0.515119C57.6023 0.384923 57.5188 0.263721 57.3871 0.171014C57.2554 0.0783069 57.0832 0.0195007 56.8983 0.00406333C56.7133 -0.011374 56.5264 0.0174464 56.3676 0.0859029C45.492 6.20892 36.2132 13.6179 28.9468 21.9812C18.2345 34.672 10.3996 48.4615 5.72472 62.8525C-2.72194 87.2807 -1.64743 112.861 8.83486 136.895C22.0231 165.666 47.3337 190.93 81.4039 209.332C115.866 227.968 158.558 237.453 201.972 236.117C211.769 235.789 221.566 235.424 231.311 234.548ZM250.542 216.63C257.927 215.541 265.174 214.027 272.209 212.105C286.28 208.255 298.755 201.981 308.493 193.859C315.2 188.258 320.21 181.751 323.214 174.737C325.288 169.337 325.858 163.79 319.12 160.506C304.502 153.426 290.714 158.207 279.621 166.746C262.555 180.737 252.357 198.232 250.542 216.63Z" fill="#F6CD3A"/>
<path fill-rule="evenodd" clip-rule="evenodd" d="M530.56 274.94C525.999 278.881 521.386 282.822 516.824 286.836C511.641 291.507 506.146 296.178 501.274 301.032C488.367 313.439 476.704 326.102 464.73 338.728C464.411 338.985 464.168 339.284 464.015 339.608C463.863 339.932 463.805 340.274 463.843 340.614C463.882 340.954 464.017 341.286 464.24 341.588C464.464 341.891 464.771 342.159 465.145 342.377C465.894 342.817 466.861 343.03 467.833 342.969C468.805 342.907 469.703 342.576 470.328 342.049C483.494 333.327 497.075 325.043 510.345 316.103C515.943 312.454 521.489 308.476 526.776 304.425C538.543 295.339 549.169 285.595 559.64 275.925C561.344 274.333 562.594 272.524 563.32 270.597C563.929 268.59 563.64 266.499 562.491 264.612C561.89 263.493 560.961 262.476 559.764 261.627C558.568 260.778 557.13 260.117 555.545 259.686C551.676 258.829 547.623 258.459 543.571 258.591C524.185 258.591 477.015 263.189 467.218 263.955L448.194 266.4C446.747 266.553 445.346 266.874 444.048 267.349C442.042 268.048 440.273 269.044 438.864 270.269C438.242 271.071 439.849 271.509 438.864 271.363C437.879 271.217 438.864 272.166 439.227 271.838C439.745 270.634 440.16 272.714 440.782 272.276C442.285 271.181 440.782 273.48 442.493 273.37C443.063 273.37 442.13 273.808 442.752 273.881C443.374 273.954 441.922 274.392 442.752 274.721C443.581 275.049 441.871 274.94 442.752 275.341C443.633 275.742 441.508 275.122 442.078 275.669C442.648 276.217 441.404 275.377 441.404 275.377C441.404 275.377 441.663 275.925 440.627 274.648C440.736 274.605 440.83 274.545 440.902 274.473C440.974 274.401 441.021 274.318 441.042 274.231C441.062 274.144 441.054 274.055 441.018 273.971C440.982 273.887 440.92 273.809 440.835 273.744C440.751 273.679 440.647 273.628 440.531 273.595C440.415 273.563 440.289 273.549 440.165 273.555C440.04 273.561 439.919 273.587 439.81 273.631C439.702 273.675 439.609 273.736 439.538 273.808C435.08 271.765 438.916 273.808 436.894 273.516C436.221 273.516 436.894 273.918 436.532 273.991C433.888 274.319 437.776 274.757 436.532 275.852C436.065 276.29 437.309 275.852 437.05 276.399C436.791 276.947 438.346 275.815 438.761 277.129C438.761 277.822 439.383 276.399 440.575 277.531C441.767 278.662 440.264 277.895 442.804 278.589C445.344 279.282 448.35 278.297 450.061 278.589L468.773 278.114C476.911 277.531 508.79 275.56 530.56 274.94Z" fill="#F6CD3A"/>
</svg>
