<svg width="24" height="26" viewBox="0 0 24 26" fill="none" xmlns="http://www.w3.org/2000/svg">
<path d="M16.5 3.01382C14.76 3.01382 13.09 3.87797 12 5.24352C10.91 3.87797 9.24 3.01382 7.5 3.01382C4.42 3.01382 2 5.59558 2 8.88145C2 12.9141 5.4 16.2 10.55 21.1928L12 22.5903L13.45 21.1821C18.6 16.2 22 12.9141 22 8.88145C22 5.59558 19.58 3.01382 16.5 3.01382ZM12.1 19.6032L12 19.7099L11.9 19.6032C7.14 15.0051 4 11.9646 4 8.88145C4 6.74777 5.5 5.14751 7.5 5.14751C9.04 5.14751 10.54 6.20368 11.07 7.66525H12.94C13.46 6.20368 14.96 5.14751 16.5 5.14751C18.5 5.14751 20 6.74777 20 8.88145C20 11.9646 16.86 15.0051 12.1 19.6032Z" fill="#F70C0C"/>
</svg>
