<svg width="48" height="48" viewBox="0 0 48 48" fill="none" xmlns="http://www.w3.org/2000/svg">
<path d="M27.4996 10.5C29.6996 10.5 31.4996 8.7 31.4996 6.5C31.4996 4.3 29.6996 2.5 27.4996 2.5C25.2996 2.5 23.4996 4.3 23.4996 6.5C23.4996 8.7 25.2996 10.5 27.4996 10.5ZM35.4996 21.06C33.0396 20.32 31.0596 18.72 29.8996 16.7L27.8996 13.5C27.0796 12.2 25.6796 11.5 24.2196 11.5C22.6596 11.5 21.0396 12.5 20.6596 14.38C20.2796 16.26 14.4996 45.5 14.4996 45.5H18.6996L22.2996 29.5L26.4996 33.5V45.5H30.4996V30.5L26.2996 26.5L27.4996 20.5C29.4996 22.8 32.3196 24.52 35.4996 25.18V45.5H38.4996V17.5H35.4996V21.06ZM15.3596 25.76L11.1196 24.94C10.0396 24.72 9.3196 23.68 9.5396 22.6L11.0596 14.74C11.4796 12.58 13.5796 11.16 15.7396 11.58L18.0596 12.04L15.3596 25.76Z" fill="white"/>
</svg>
